# xmcd
#
# Track frame offsets: 
#        150
#        3820
#        4341
#        27036
#        30571
#        33189
#        44762
#        51100
#        58296
#        73704
#        86589
#        100553
#        112529
#        123493
#        135619
#        148779
#        161493
#        173784
#        183036
#        184530
#        186038
#        189137
#        197172
#        204540
#        220391
#        233545
#        248073
#        261871
#        272866
#        283272
#        295974
#        308662
#        322067
#
# Disc length: 4331 seconds
#
# Revision: 0
# Processed by: cddbd v1.5.2PL0 Copyright (c) Steve Scherf et al.
# Submitted via: ExactAudioCopy v0.95b3
#
DISCID=d210e921
DTITLE=The Beatles  - Live 11 - The Last Tour (Purple Chick) - Disc 1
DYEAR=1900
DGENRE=
TTITLE0=intro (Cleveland 1966)
TTITLE1=Day Tripper (Cleveland 1966)
TTITLE2=show interruption (Cleveland 1966)
TTITLE3=I Feel Fine (Cleveland 1966)
TTITLE4=intro (Toronto 1966) (afternoon)
TTITLE5=If I Needed Someone (Toronto 1966) (afternoon)
TTITLE6=intro (Toronto 1966) (evening)
TTITLE7=Rock and Roll Music (Toronto 1966) (evening)
TTITLE8=She's A Woman (Toronto 1966) (evening)
TTITLE9=If I Needed Someone (Toronto 1966) (evening)
TTITLE10=Day Tripper (Toronto 1966) (evening)
TTITLE11=Baby's In Black (Toronto 1966) (evening)
TTITLE12=I Feel Fine (Toronto 1966) (evening)
TTITLE13=Yesterday (Toronto 1966) (evening)
TTITLE14=I Wanna Be Your Man (Toronto 1966) (evening)
TTITLE15=Nowhere Man (Toronto 1966) (evening)
TTITLE16=Paperback Writer (Toronto 1966) (evening)
TTITLE17=Long Tall Sally (Toronto 1966) (evening)
TTITLE18=outro (Toronto 1966) (evening)
TTITLE19=She's A Woman (Boston 1966)
TTITLE20=Long Tall Sally (Boston 1966)
TTITLE21=intro (Memphis 1966) (afternoon)
TTITLE22=Rock and Roll Music (Memphis 1966) (afternoon)
TTITLE23=She's A Woman (Memphis 1966) (afternoon)
TTITLE24=If I Needed Someone (Memphis 1966) (afternoon)
TTITLE25=Day Tripper (Memphis 1966) (afternoon)
TTITLE26=Baby's In Black (Memphis 1966) (afternoon)
TTITLE27=I Feel Fine (Memphis 1966) (afternoon)
TTITLE28=Yesterday (Memphis 1966) (afternoon)
TTITLE29=I Wanna Be Your Man (Memphis 1966) (afternoon)
TTITLE30=Nowhere Man (Memphis 1966) (afternoon)
TTITLE31=Paperback Writer (Memphis 1966) (afternoon)
TTITLE32=Long Tall Sally (Memphis 1966) (afternoon)
EXTD=
EXTT0=
EXTT1=
EXTT2=
EXTT3=
EXTT4=
EXTT5=
EXTT6=
EXTT7=
EXTT8=
EXTT9=
EXTT10=
EXTT11=
EXTT12=
EXTT13=
EXTT14=
EXTT15=
EXTT16=
EXTT17=
EXTT18=
EXTT19=
EXTT20=
EXTT21=
EXTT22=
EXTT23=
EXTT24=
EXTT25=
EXTT26=
EXTT27=
EXTT28=
EXTT29=
EXTT30=
EXTT31=
EXTT32=
PLAYORDER=
